# AST/ASF file generated using VICON BodyLanguage
# -----------------------------------------------
:version 1.10
:name VICON
:units
  mass 1.0
  length 0.45
  angle deg
:documentation
   .ast/.asf automatically generated from VICON data using
   VICON BodyBuilder and BodyLanguage model FoxedUp or BRILLIANT.MOD
:root
   order TX TY TZ RX RY RZ
   axis XYZ
   position 0 0 0  
   orientation 0 0 0 
:bonedata
  begin
     id 1 
     name lhipjoint
     direction 0.690799 -0.707083 0.151096 
     length 2.54797 
     axis 0 0 0  XYZ
  end
  begin
     id 2 
     name lfemur
     direction 0.34202 -0.939693 0  
     length 7.21646  
     axis 0 0 20  XYZ
    dof rx ry rz
    limits (-160.0 20.0)
           (-70.0 70.0)
           (-60.0 70.0)
  end
  begin
     id 3 
     name ltibia
     direction 0.34202 -0.939693 0   
     length 8.16759   
     axis 0 0 20   XYZ
    dof rx
    limits (-10.0 170.0)
  end
  begin
     id 4 
     name lfoot
     direction 0.0487203 -0.133858 0.989802   
     length 1.93375   
     axis -90 7.62852e-016 20   XYZ
    dof rx rz
    limits (-45.0 90.0)
           (-70.0 20.0)
  end
  begin
     id 5 
     name ltoes
     direction 1.53453e-011 -4.21783e-011 1   
     length 0.979747   
     axis -90 7.62852e-016 20   XYZ
    dof rx
    limits (-90.0 20.0)
  end
  begin
     id 6 
     name rhipjoint
     direction -0.694693 -0.703425 0.150315   
     length 2.56122  
     axis 0 0 0  XYZ 
  end
  begin
     id 7 
     name rfemur
     direction -0.34202 -0.939693 0   
     length 7.36786   
     axis 0 0 -20   XYZ
    dof rx ry rz
    limits (-160.0 20.0)
           (-70.0 70.0)
           (-70.0 60.0)
  end
  begin
     id 8 
     name rtibia
     direction -0.34202 -0.939693 0   
     length 8.07288   
     axis 0 0 -20   XYZ
    dof rx
    limits (-10.0 170.0)
 end
 begin
     id 9 
     name rfoot
     direction -0.0428397 -0.117701 0.992125   
     length 1.88295  
     axis -90 -7.62852e-016 -20   XYZ
    dof rx rz
    limits (-45.0 90.0)
           (-20.0 70.0)
  end
  begin
     id 10 
     name rtoes
     direction -1.53456e-011 -4.2187e-011 1   
     length 0.955578   
     axis -90 -7.62852e-016 -20   XYZ
    dof rx
    limits (-90.0 20.0)
  end
  begin
     id 11 
     name lowerback
     direction 0.0288145 0.999398 -0.0193241   
     length 1.92149   
     axis 0 0 0   XYZ
    dof rx ry rz
    limits (-20.0 45.0)
           (-30.0 30.0)
           (-30.0 30.0)
  end
  begin
     id 12 
     name upperback
     direction 0.0233784 0.998099 0.0570278   
     length 1.90435   
     axis 0 0 0   XYZ
    dof rx ry rz
    limits (-20.0 45.0)
           (-30.0 30.0)
           (-30.0 30.0)
  end
  begin
     id 13 
     name thorax
     direction 0.0096694 0.997833 0.0650817   
     length 1.9111   
     axis 0 0 0   XYZ
    dof rx ry rz
    limits (-20.0 45.0)
           (-30.0 30.0)
           (-30.0 30.0)
  end
  begin
     id 14 
     name lowerneck
     direction 0.00516803 0.999916 0.0118722   
     length 1.74664   
     axis 0 0 0   XYZ
    dof rx ry rz
    limits (-20.0 45.0)
           (-30.0 30.0)
           (-30.0 30.0)
  end
  begin
     id 15 
     name upperneck
     direction -0.0510851 0.996117 -0.071696   
     length 1.68498   
     axis 0 0 0   XYZ
    dof rx ry rz
    limits (-20.0 45.0)
           (-30.0 30.0)
           (-30.0 30.0)
  end
  begin
     id 16
     name head
     direction -0.019188 0.999436 -0.0275702  
     length 1.83483  
     axis 0 0 0   XYZ
    dof rx ry rz
    limits (-20.0 45.0)
           (-30.0 30.0)
           (-30.0 30.0)
  end
  begin
     id 17 
     name lclavicle
     direction 0.967006 0.248456 -0.0562957  
     length 3.39395  
     axis 0 0 0   XYZ
    dof ry rz
    limits (-20.0 10.0)
           (0.0 20.0)
  end
  begin
     id 18 
     name lhumerus
     direction 1 -4.48962e-011 -5.62711e-019   
     length 5.24318   
     axis 180 -30 -90   XYZ
    dof rx ry rz
    limits (-60.0 90.0)
           (-90.0 90.0)
           (-90.0 90.0)
  end
  begin
     id 19
     name lradius
     direction 1 -4.48966e-011 7.90625e-027   
     length 2.98999   
     axis 180 -30 -90   XYZ
    dof rx
    limits (-10.0 170.0)
  end
  begin
     id 20
     name lwrist
     direction 1 -4.48959e-011 1.61068e-026   
     length 1.49499   
     axis -9.31229e-015 90 90   XYZ
    dof ry
    limits (-180.0 0.0)
 end
  begin
     id 21 
     name lhand
     direction 1 -4.49017e-011 3.22136e-026   
     length 0.726745   
     axis -2.0555e-014 90 90   XYZ
    dof rx rz
    limits (-90.0 90.0)
           (-45.0 45.0)
  end
  begin
     id 22 
     name lfingers
     direction 1 -4.4898e-011 6.44272e-026   
     length 0.58592   
     axis -4.11101e-014 90 90   XYZ
    dof rx
    limits (0.0 90.0)
  end
  begin
     id 23
     name lthumb
     direction 0.707107 -6.34922e-011 0.707107   
     length 0.841268   
     axis -90 45 2.85299e-015   XYZ
    dof rx rz
    limits (-45.0 45.0)
           (-45.0 45.0)
  end
  begin
     id 24 
     name rclavicle
     direction -0.972232 0.230238 0.0419005   
     length 3.40416  
     axis 0 0 0   XYZ 
    dof ry rz
    limits (-10.0 20.0)
           (-20.0 0.0)
  end
  begin
     id 25 
     name rhumerus
     direction -1 -4.48976e-011 2.48487e-027  
     length 5.37045   
     axis 180 30 90   XYZ
    dof rx ry rz
    limits (-90.0 60.0)
           (-90.0 90.0)
           (-90.0 90.0)
  end
  begin
     id 26 
     name rradius
     direction -1 -4.48942e-011 7.87951e-027   
     length 2.92792   
     axis 180 30 90   XYZ
    dof rx
    limits (-10.0 170.0)
  end
  begin
     id 27 
     name rwrist
     direction -1 -4.48969e-011 1.61068e-026   
     length 1.46396   
     axis -9.31229e-015 -90 -90   XYZ
    dof ry
    limits (-180.0 0.0)
  end
  begin
     id 28
     name rhand
     direction -1 -4.49043e-011 3.22136e-026   
     length 0.784497   
     axis -2.0555e-014 -90 -90   XYZ
    dof rx rz
    limits (-90.0 90.0)
           (-45.0 45.0)
  end
  begin
     id 29
     name rfingers
     direction -1 -4.48823e-011 6.44272e-026   
     length 0.632482   
     axis -4.11101e-014 -90 -90   XYZ
    dof rx
    limits (0.0 90.0)
  end
  begin
     id 30
     name rthumb
     direction -0.707107 -6.34923e-011 0.707107   
     length 0.908121   
     axis -90 -45 -2.85299e-015   XYZ
    dof rx rz
    limits (-45.0 45.0)
           (-45.0 45.0)
  end
:hierarchy
  begin
    root lhipjoint rhipjoint lowerback
    lhipjoint lfemur
    lfemur ltibia
    ltibia lfoot
    lfoot ltoes
    rhipjoint rfemur
    rfemur rtibia
    rtibia rfoot
    rfoot rtoes
    lowerback upperback
    upperback thorax
    thorax lowerneck lclavicle rclavicle
    lowerneck upperneck
    upperneck head
    lclavicle lhumerus
    lhumerus lradius
    lradius lwrist
    lwrist lhand lthumb
    lhand lfingers
    rclavicle rhumerus
    rhumerus rradius
    rradius rwrist
    rwrist rhand rthumb
    rhand rfingers
  end

#!OML:ASF E:\Style6\Style6.ASF
:FULLY-SPECIFIED
:DEGREES
1
root 0.617292 17.765 -0.781246 36.1063 3.29983 0.108839
lowerback 6.41096 -1.64419 1.95651
upperback -7.53302 -1.67976 3.15973
thorax -11.6842 -0.812462 2.60314
lowerneck -10.0883 -0.471969 2.01764
upperneck -2.0227 -0.777348 -6.41526
head 1.06491 -0.530078 -2.43264
rclavicle 1.55052e-014 -9.54166e-015
rhumerus -5.24304 19.4986 -79.5309
rradius 33.9553
rwrist 34.2802
rhand 0.0705804 7.95597
rfingers 7.12502
rthumb 25.658 -20.3351
lclavicle 1.55052e-014 -9.54166e-015
lhumerus 0.670282 -29.7406 81.4287
lradius 31.4774
lwrist -12.7094
lhand -0.957094 16.8235
lfingers 7.12502
lthumb 24.6733 45.2528
rfemur -55.5989 -9.00965 24.0513
rtibia 25.9738
rfoot -0.766768 -4.43191
rtoes -15.3491
lfemur -55.4292 4.03679 -21.8369
ltibia 28.1921
lfoot -4.10331 -2.3824
ltoes -15.5284
2
root 0.616145 17.7653 -0.781081 36.1455 3.31231 0.0776639
lowerback 6.39505 -1.643 1.99111
upperback -7.51709 -1.67466 3.16409
thorax -11.6575 -0.812974 2.58619
lowerneck -9.95855 -0.507268 2.00127
upperneck -2.3338 -0.838593 -6.39986
head 0.938844 -0.553861 -2.42151
rclavicle 2.40529e-014 -7.95139e-015
rhumerus -5.15556 19.3366 -79.5131
rradius 33.8629
rwrist 34.3986
rhand 0.160412 8.08832
rfingers 7.12502
rthumb 25.744 -20.1903
lclavicle 2.40529e-014 -7.95139e-015
lhumerus 0.702672 -29.6445 81.4422
lradius 31.3977
lwrist -12.8869
lhand -1.05897 16.8575
lfingers 7.12502
lthumb 24.5757 45.3001
rfemur -55.6099 -8.95103 24.0555
rtibia 25.9264
rfoot -0.744179 -4.50051
rtoes -15.14
lfemur -55.4694 4.03314 -21.7831
ltibia 28.1787
lfoot -4.07492 -2.39415
ltoes -15.4888
3
root 0.615937 17.7645 -0.779983 36.2032 3.33326 0.0352136
lowerback 6.38547 -1.6512 2.07681
upperback -7.53367 -1.67601 3.15805
thorax -11.6737 -0.821197 2.53231
lowerneck -9.68563 -0.508941 2.13875
upperneck -2.69972 -0.872578 -6.49911
head 0.77265 -0.563792 -2.47372
rclavicle 1.39149e-015 -2.34566e-014
rhumerus -5.12753 19.2216 -79.5436
rradius 33.7851
rwrist 34.5035
rhand 0.186979 8.08323
rfingers 7.12502
rthumb 25.7695 -20.1917
lclavicle 1.39149e-015 -2.34566e-014
lhumerus 0.652624 -29.4264 81.5016
lradius 31.2956
lwrist -13.1356
lhand -1.01118 16.7277
lfingers 7.12502
lthumb 24.6215 45.1641
rfemur -55.6632 -8.94379 24.1251
rtibia 25.9119
rfoot -0.694782 -4.4927
rtoes -15.0591
lfemur -55.5087 4.01107 -21.7083
ltibia 28.1344
lfoot -4.03169 -2.3589
ltoes -15.3917
4
root 0.615868 17.7653 -0.779402 36.2261 3.29048 0.0934718
lowerback 6.44006 -1.65118 2.0385
upperback -7.54441 -1.68248 3.11549
thorax -11.719 -0.822874 2.51149
lowerneck -9.43741 -0.512793 2.27797
upperneck -3.04593 -0.908364 -6.61016
head 0.617403 -0.575468 -2.53131
rclavicle 5.56597e-015 1.27222e-014
rhumerus -5.10422 19.1657 -79.555
rradius 33.7338
rwrist 34.5204
rhand 0.153458 7.98414
rfingers 7.12502
rthumb 25.7374 -20.2954
lclavicle 5.56597e-015 1.27222e-014
lhumerus 0.609242 -29.2386 81.5726
lradius 31.1913
lwrist -13.3717
lhand -0.868665 16.58
lfingers 7.12502
lthumb 24.7581 44.9977
rfemur -55.6835 -8.94999 24.0523
rtibia 25.9003
rfoot -0.688867 -4.46006
rtoes -14.927
lfemur -55.4978 3.97801 -21.7651
ltibia 28.097
lfoot -4.02606 -2.30623
ltoes -15.4607
5
root 0.615684 17.7666 -0.779052 36.2567 3.29882 0.119414
lowerback 6.46338 -1.67392 2.02854
upperback -7.55596 -1.71445 3.10615
thorax -11.7456 -0.837759 2.51381
lowerneck -9.29455 -0.496906 2.26358
upperneck -3.29253 -0.897738 -6.57735
head 0.514377 -0.563665 -2.51342
rclavicle 3.57812e-015 -1.43125e-014
rhumerus -5.07213 19.0787 -79.5826
rradius 33.6685
rwrist 34.5657
rhand 0.173152 7.949
rfingers 7.12502
rthumb 25.7562 -20.3278
lclavicle 3.57812e-015 -1.43125e-014
lhumerus 0.546429 -29.0768 81.6261
lradius 31.1123
lwrist -13.526
lhand -0.765254 16.5377
lfingers 7.12502
lthumb 24.8572 44.9418
rfemur -55.7105 -8.97758 24.0444
rtibia 25.8986
rfoot -0.727224 -4.43165
rtoes -14.7429
lfemur -55.5058 3.91685 -21.7493
ltibia 28.068
lfoot -4.00776 -2.25871
ltoes -15.2361
6
root 0.61469 17.7662 -0.778554 36.3002 3.28815 0.145293
lowerback 6.43759 -1.68847 1.9625
upperback -7.53776 -1.7422 3.1241
thorax -11.7053 -0.844975 2.57276
lowerneck -9.23422 -0.499362 2.15439
upperneck -3.50636 -0.901111 -6.48409
head 0.43543 -0.559083 -2.45979
rclavicle 2.5842e-015 3.22031e-014
rhumerus -4.98632 19.0811 -79.5532
rradius 33.6213
rwrist 34.5563
rhand 0.204644 7.85818
rfingers 7.12502
rthumb 25.7864 -20.4143
lclavicle 2.5842e-015 3.22031e-014
lhumerus 0.552688 -29.0586 81.6402
lradius 31.1066
lwrist -13.4886
lhand -0.690452 16.7127
lfingers 7.12502
lthumb 24.9289 45.1068
rfemur -55.7652 -8.98074 24.0307
rtibia 25.9041
rfoot -0.687628 -4.44848
rtoes -15.1812
lfemur -55.5348 3.89351 -21.7695
ltibia 28.0431
lfoot -3.99289 -2.2414
ltoes -15.6497
7
root 0.612798 17.7653 -0.778236 36.334 3.29575 0.136361
lowerback 6.43476 -1.69264 1.93728
upperback -7.51186 -1.75109 3.13191
thorax -11.6726 -0.846991 2.5954
lowerneck -9.18298 -0.506994 2.15936
upperneck -3.75243 -0.924321 -6.46635
head 0.347078 -0.566283 -2.45304
rclavicle 7.15625e-015 3.97569e-016
rhumerus -4.89657 19.1354 -79.5191
rradius 33.592
rwrist 34.4065
rhand 0.213521 7.76393
rfingers 7.12502
rthumb 25.7949 -20.5073
lclavicle 7.15625e-015 3.97569e-016
lhumerus 0.621022 -29.1962 81.5728
lradius 31.1296
lwrist -13.3026
lhand -0.694515 16.8903
lfingers 7.12502
lthumb 24.925 45.285
rfemur -55.801 -8.97559 24.0626
rtibia 25.8988
rfoot -0.663412 -4.48871
rtoes -15.2801
lfemur -55.5517 3.86491 -21.7231
ltibia 28.0281
lfoot -4.00275 -2.20613
ltoes -15.6815
8
root 0.611655 17.7654 -0.777661 36.3608 3.28688 0.157287
lowerback 6.45251 -1.69654 1.91657
upperback -7.50401 -1.76104 3.1072
thorax -11.6741 -0.851313 2.58218
lowerneck -9.00725 -0.524256 2.1756
upperneck -4.10854 -0.966337 -6.44655
head 0.20182 -0.579399 -2.44638
rclavicle -3.37934e-015 4.37326e-015
rhumerus -4.85413 19.0788 -79.5234
rradius 33.5744
rwrist 34.3661
rhand 0.214557 7.76061
rfingers 7.12502
rthumb 25.7959 -20.5105
lclavicle -3.37934e-015 4.37326e-015
lhumerus 0.639572 -29.2474 81.5434
lradius 31.0919
lwrist -13.2298
lhand -0.819813 16.9216
lfingers 7.12502
lthumb 24.8049 45.3328
rfemur -55.8156 -8.95053 24.0106
rtibia 25.9031
rfoot -0.72571 -4.52145
rtoes -14.4818
lfemur -55.5489 3.81184 -21.7019
ltibia 28.0138
lfoot -4.02101 -2.13643
ltoes -15.4423
9
root 0.611363 17.7651 -0.777023 36.4103 3.25034 0.19521
lowerback 6.45076 -1.70618 1.86618
upperback -7.51507 -1.78191 3.09056
thorax -11.6837 -0.85796 2.59617
lowerneck -8.69685 -0.521037 2.22313
upperneck -4.56925 -0.988788 -6.48161
head 0.00171189 -0.579927 -2.4619
rclavicle -2.10712e-014 3.93594e-014
rhumerus -4.80533 18.9713 -79.5304
rradius 33.5563
rwrist 34.3819
rhand 0.333053 7.77102
rfingers 7.12502
rthumb 25.9093 -20.4835
lclavicle -2.10712e-014 3.93594e-014
lhumerus 0.576287 -29.1416 81.5787
lradius 31.0902
lwrist -13.251
lhand -0.834163 16.8901
lfingers 7.12502
lthumb 24.7912 45.3032
rfemur -55.8752 -8.96005 23.9696
rtibia 25.9128
rfoot -0.756746 -4.47852
rtoes -13.6897
lfemur -55.5807 3.7845 -21.7402
ltibia 27.9908
lfoot -3.99917 -2.09326
ltoes -15.6951
10
root 0.609662 17.7631 -0.777121 36.4607 3.19541 0.221655
lowerback 6.49448 -1.68721 1.82315
upperback -7.54051 -1.76264 3.05419
thorax -11.7395 -0.846321 2.58079
lowerneck -8.44294 -0.52713 2.34494
upperneck -4.93998 -1.02672 -6.59029
head -0.161209 -0.591962 -2.5179
rclavicle 3.61788e-014 -3.22031e-014
rhumerus -4.79318 18.8168 -79.5371
rradius 33.5548
rwrist 34.3519
rhand 0.499089 7.6814
rfingers 7.12502
rthumb 26.0683 -20.5498
lclavicle 3.61788e-014 -3.22031e-014
lhumerus 0.499497 -29.0793 81.6474
lradius 31.1057
lwrist -13.2829
lhand -0.872374 16.8257
lfingers 7.12502
lthumb 24.7545 45.2438
rfemur -55.9548 -8.95113 23.9501
rtibia 25.9305
rfoot -0.758676 -4.44815
rtoes -13.7821
lfemur -55.6151 3.78166 -21.7702
ltibia 27.9588
lfoot -3.96023 -2.06299
ltoes -15.7118
11
root 0.607374 17.7615 -0.779184 36.5829 3.20772 0.254571
lowerback 6.51083 -1.69022 1.79673
upperback -7.60566 -1.76915 3.03864
thorax -11.8234 -0.847264 2.58371
lowerneck -8.33929 -0.526965 2.37215
upperneck -5.12977 -1.03826 -6.60869
head -0.239661 -0.593843 -2.52793
rclavicle -2.8625e-014 7.95139e-015
rhumerus -4.80453 18.7343 -79.5306
rradius 33.5813
rwrist 34.2551
rhand 0.702743 7.60435
rfingers 7.12502
rthumb 26.2633 -20.598
lclavicle -2.8625e-014 7.95139e-015
lhumerus 0.393728 -29.2292 81.6576
lradius 31.1518
lwrist -13.1845
lhand -0.976324 16.7947
lfingers 7.12502
lthumb 24.6549 45.2265
rfemur -56.1128 -8.97605 23.967
rtibia 25.9573
rfoot -0.750836 -4.43967
rtoes -13.7961
lfemur -55.7455 3.76253 -21.7941
ltibia 27.9186
lfoot -3.89484 -2.0948
ltoes -15.431
12
root 0.605993 17.76 -0.780059 36.6945 3.24731 0.270566
lowerback 6.48989 -1.70755 1.79339
upperback -7.64326 -1.7919 3.04925
thorax -11.8527 -0.857203 2.60181
lowerneck -8.23701 -0.524766 2.31823
upperneck -5.37547 -1.04174 -6.54273
head -0.334668 -0.589239 -2.49461
rclavicle -1.98785e-016 7.95139e-016
rhumerus -4.77718 18.7136 -79.5083
rradius 33.5936
rwrist 34.1241
rhand 0.845072 7.56425
rfingers 7.12502
rthumb 26.3996 -20.6177
lclavicle -1.98785e-016 7.95139e-016
lhumerus 0.322586 -29.2802 81.6666
lradius 31.2145
lwrist -13.2222
lhand -0.966654 16.7249
lfingers 7.12502
lthumb 24.6642 45.1554
rfemur -56.2686 -9.05467 24.0456
rtibia 25.9988
rfoot -0.73787 -4.38759
rtoes -13.8837
lfemur -55.8691 3.74032 -21.802
ltibia 27.8923
lfoot -3.85785 -2.13317
ltoes -15.3413
13
root 0.605305 17.7593 -0.77834 36.7346 3.24318 0.282139
lowerback 6.45618 -1.72738 1.78234
upperback -7.6324 -1.8227 3.04278
thorax -11.8184 -0.871927 2.60395
lowerneck -8.06916 -0.501967 2.34386
upperneck -5.68761 -1.02799 -6.53155
head -0.461399 -0.575616 -2.49368
rclavicle -5.96354e-015 7.95139e-016
rhumerus -4.74181 18.6679 -79.527
rradius 33.5715
rwrist 34.0856
rhand 0.8246 7.6535
rfingers 7.12502
rthumb 26.38 -20.5314
lclavicle -5.96354e-015 7.95139e-016
lhumerus 0.277279 -29.2764 81.6356
lradius 31.3106
lwrist -13.1645
lhand -0.906962 16.6944
lfingers 7.12502
lthumb 24.7214 45.1171
rfemur -56.3275 -9.06642 24.0409
rtibia 26.0393
rfoot -0.808674 -4.39459
rtoes -12.9992
lfemur -55.9069 3.74684 -21.8305
ltibia 27.8856
lfoot -3.87838 -2.13518
ltoes -15.811
14
root 0.602708 17.7549 -0.780603 36.8619 3.25635 0.300523
lowerback 6.39923 -1.73501 1.76711
upperback -7.66692 -1.83801 3.02565
thorax -11.8224 -0.879074 2.59544
lowerneck -7.95019 -0.498659 2.40989
upperneck -5.89967 -1.03944 -6.56049
head -0.549774 -0.577727 -2.51491
rclavicle -1.05356e-014 -1.90833e-014
rhumerus -4.74269 18.6046 -79.5431
rradius 33.5324
rwrist 34.114
rhand 0.693741 7.72634
rfingers 7.12502
rthumb 26.2547 -20.4772
lclavicle -1.05356e-014 -1.90833e-014
lhumerus 0.200376 -29.3197 81.6349
lradius 31.3852
lwrist -13.111
lhand -0.905251 16.7005
lfingers 7.12502
lthumb 24.723 45.1229
rfemur -56.4899 -9.05792 24.0471
rtibia 26.0549
rfoot -0.808524 -4.38697
rtoes -12.961
lfemur -56.0649 3.72607 -21.8408
ltibia 27.8926
lfoot -3.85226 -2.14348
ltoes -15.6871
